<svg width="159" height="36" viewBox="0 0 159 36" fill="none" xmlns="http://www.w3.org/2000/svg">
<path d="M0 7.19955C0 3.80565 0 2.1087 1.05442 1.05435C2.10883 0 3.80589 0 7.2 0H28.8C32.1941 0 33.8912 0 34.9456 1.05435C36 2.1087 36 3.80565 36 7.19955V28.7982C36 32.1921 36 33.889 34.9456 34.9434C33.8912 35.9978 32.2123 35.9978 28.8182 35.9978V36L24.7078 35.9996L28.1739 10.1121C28.1739 8.86218 26.5744 9.61746 26.5744 9.61746L0.0249174 17.8224C0.0249174 17.8224 0.0160039 17.8256 0 17.8321V7.19955Z" fill="#212121"/>
<path d="M0 19.6977V28.7982C0 32.1921 0 33.889 1.05442 34.9434C2.10883 35.9978 3.82406 35.9978 7.21817 35.9978L22.4945 35.9993L14.893 22.9796L14.8559 22.9601C15.9362 21.9177 24.3131 13.8231 24.6792 13.4562C25.246 12.888 24.8941 12.5497 24.236 12.9789L11.8623 21.424L0 19.6977Z" fill="#212121"/>
<path d="M59.992 26.264C57.704 26.264 55.96 25.752 54.76 24.728C53.624 23.752 53.008 22.384 52.912 20.624H56.632C56.744 21.536 57.008 22.192 57.424 22.592C57.984 23.152 58.84 23.432 59.992 23.432C60.856 23.432 61.544 23.224 62.056 22.808C62.568 22.376 62.824 21.824 62.824 21.152C62.824 20.496 62.6 20 62.152 19.664C61.656 19.36 60.8 19.112 59.584 18.92C57.328 18.632 55.752 18.104 54.856 17.336C53.88 16.584 53.392 15.376 53.392 13.712C53.392 12.256 53.96 11.032 55.096 10.04C56.264 9.08 57.776 8.6 59.632 8.6C61.584 8.6 63.104 9.032 64.192 9.896C65.28 10.76 65.904 12.04 66.064 13.736H62.488C62.28 12.216 61.328 11.456 59.632 11.456C58.8 11.456 58.16 11.632 57.712 11.984C57.28 12.336 57.064 12.808 57.064 13.4C57.064 14.056 57.272 14.52 57.688 14.792C58.12 15.128 58.976 15.392 60.256 15.584C62.432 15.856 64 16.344 64.96 17.048C66.016 17.848 66.544 19.096 66.544 20.792C66.544 22.376 65.96 23.664 64.792 24.656C63.56 25.728 61.96 26.264 59.992 26.264ZM68.4962 17.864H74.6402V20.624H68.4962V17.864ZM77.4717 8.84H82.6077L86.6157 19.52L90.5757 8.84H95.6157V26H91.7517V13.952L86.9997 26H85.7277L80.9517 13.952V26H77.4717V8.84ZM101.975 26.264C100.759 26.264 99.7749 25.968 99.0229 25.376C98.1909 24.72 97.7749 23.768 97.7749 22.52C97.7749 21.128 98.3829 20.088 99.5989 19.4C100.687 18.792 102.255 18.488 104.303 18.488H105.719V17.984C105.719 17.184 105.567 16.6 105.263 16.232C104.975 15.864 104.447 15.68 103.679 15.68C102.447 15.68 101.735 16.272 101.543 17.456H98.2549C98.3509 16.048 98.9349 14.96 100.007 14.192C100.983 13.504 102.279 13.16 103.895 13.16C105.511 13.16 106.775 13.512 107.687 14.216C108.663 14.984 109.151 16.184 109.151 17.816V26H105.767V24.488C104.919 25.672 103.655 26.264 101.975 26.264ZM103.007 23.84C103.791 23.84 104.439 23.64 104.951 23.24C105.463 22.84 105.719 22.296 105.719 21.608V20.552H104.375C103.319 20.552 102.519 20.688 101.975 20.96C101.447 21.232 101.183 21.688 101.183 22.328C101.183 23.336 101.791 23.84 103.007 23.84ZM111.819 7.76H115.299V18.752L119.331 13.448H123.027L118.467 19.16L123.387 26H119.451L115.299 20.072V26H111.819V7.76ZM130.011 26.264C128.059 26.264 126.499 25.696 125.331 24.56C124.083 23.408 123.459 21.848 123.459 19.88V19.688C123.459 17.736 124.083 16.152 125.331 14.936C126.547 13.752 128.075 13.16 129.915 13.16C131.659 13.16 133.083 13.664 134.187 14.672C135.419 15.792 136.035 17.416 136.035 19.544V20.504H126.987C127.035 21.56 127.323 22.376 127.851 22.952C128.395 23.512 129.147 23.792 130.107 23.792C131.611 23.792 132.483 23.208 132.723 22.04H136.011C135.803 23.4 135.179 24.448 134.139 25.184C133.115 25.904 131.739 26.264 130.011 26.264ZM132.651 18.368C132.539 16.496 131.627 15.56 129.915 15.56C129.131 15.56 128.483 15.808 127.971 16.304C127.475 16.784 127.163 17.472 127.035 18.368H132.651ZM137.994 13.448H141.474V15.848C142.274 14.136 143.626 13.272 145.53 13.256V16.496C144.186 16.48 143.17 16.72 142.482 17.216C141.81 17.712 141.474 18.544 141.474 19.712V26H137.994V13.448ZM152.056 26.264C150.36 26.264 149.04 25.904 148.096 25.184C147.152 24.464 146.648 23.424 146.584 22.064H149.824C149.92 22.672 150.128 23.12 150.448 23.408C150.768 23.696 151.296 23.84 152.032 23.84C153.344 23.84 154 23.384 154 22.472C154 22.04 153.808 21.72 153.424 21.512C153.04 21.288 152.384 21.112 151.456 20.984C149.76 20.712 148.576 20.304 147.904 19.76C147.184 19.2 146.824 18.304 146.824 17.072C146.824 15.84 147.336 14.856 148.36 14.12C149.24 13.48 150.384 13.16 151.792 13.16C153.248 13.16 154.424 13.448 155.32 14.024C156.264 14.664 156.816 15.672 156.976 17.048H153.784C153.688 16.52 153.488 16.136 153.184 15.896C152.88 15.656 152.424 15.536 151.816 15.536C151.256 15.536 150.816 15.656 150.496 15.896C150.192 16.136 150.04 16.448 150.04 16.832C150.04 17.232 150.208 17.528 150.544 17.72C150.896 17.912 151.536 18.072 152.464 18.2C154.112 18.424 155.32 18.8 156.088 19.328C156.92 19.952 157.336 20.888 157.336 22.136C157.336 23.48 156.872 24.504 155.944 25.208C155.032 25.912 153.736 26.264 152.056 26.264Z" fill="#09090B"/>
</svg>
